<?xml version="1.0" standalone="no"?>
<!DOCTYPE svg PUBLIC "-//W3C//DTD SVG 20010904//EN"
 "http://www.w3.org/TR/2001/REC-SVG-20010904/DTD/svg10.dtd">
<svg  version="1.0" xmlns="http://www.w3.org/2000/svg">
<g transform="translate(0.000000,294.000000) scale(0.100000,-0.100000)"
fill="#FFFFFF" stroke="none">
<path d="M1177 2347 c-183 -87 -277 -136 -275 -145 2 -8 54 -34 116 -59 l112
-45 0 -90 c0 -87 1 -91 30 -118 30 -28 110 -60 198 -79 l42 -9 0 37 c0 35 -2
37 -43 48 -54 15 -129 80 -156 136 -27 56 -36 148 -19 212 11 43 17 50 40 53
57 7 165 -59 213 -128 l28 -40 35 36 c47 49 114 79 142 64 30 -16 22 -52 -13
-61 -48 -13 -94 -56 -123 -114 -22 -45 -28 -75 -32 -151 l-5 -95 44 7 c117 17
203 47 247 87 20 18 22 30 22 112 l0 92 113 46 c79 32 112 50 112 62 0 11 -56
43 -190 107 -104 49 -227 107 -271 129 -45 21 -84 39 -85 39 -2 0 -129 -60
-282 -133z"/>
<path d="M1246 2213 c-3 -4 -6 -31 -6 -62 0 -96 60 -181 138 -197 30 -6 31 -5
37 39 10 68 -24 137 -95 188 -40 30 -65 40 -74 32z"/>
<path d="M1945 1910 c-13 -42 -84 -88 -183 -118 -54 -17 -110 -33 -125 -37
-22 -4 -28 -11 -25 -28 9 -64 274 -27 393 54 39 27 61 61 50 79 -9 14 -85 70
-96 70 -4 0 -10 -9 -14 -20z"/>
<path d="M807 1812 c-35 -36 -34 -54 3 -85 101 -85 281 -170 452 -213 203 -51
515 -43 701 18 109 36 237 111 237 139 0 13 -44 79 -52 79 -4 0 -37 -20 -72
-44 -67 -46 -177 -87 -286 -107 -97 -17 -319 -15 -425 5 -182 34 -377 116
-468 197 -25 21 -49 39 -54 39 -5 0 -21 -13 -36 -28z"/>
<path d="M680 1618 c-10 -22 -16 -47 -13 -54 7 -19 139 -107 228 -152 241
-120 543 -172 830 -142 205 21 395 80 498 155 51 38 54 48 32 100 l-14 35 -62
-40 c-80 -52 -191 -94 -320 -121 -151 -32 -419 -32 -569 0 -194 42 -370 116
-503 212 -37 27 -72 49 -78 49 -5 0 -18 -19 -29 -42z"/>
<path d="M626 1443 c-3 -4 -6 -32 -6 -64 0 -54 2 -59 38 -89 52 -43 210 -122
317 -158 393 -134 951 -112 1230 48 68 39 85 62 85 117 0 48 -9 52 -48 24 -91
-64 -256 -121 -422 -146 -142 -22 -411 -20 -553 5 -210 36 -402 110 -556 215
-44 29 -82 51 -85 48z"/>
<path d="M634 1143 c2 -10 7 -29 11 -43 4 -14 18 -51 32 -82 24 -55 28 -58 92
-83 95 -37 287 -83 426 -101 152 -20 504 -15 640 10 132 24 235 55 307 90 52
26 67 39 86 76 37 75 32 83 -35 50 -223 -110 -594 -153 -948 -109 -187 23
-431 101 -545 174 -63 39 -73 42 -66 18z"/>
<path d="M2022 788 c-157 -54 -289 -72 -557 -72 -259 0 -394 16 -577 69 -45
13 -85 21 -88 18 -10 -10 171 -173 238 -213 37 -22 106 -54 153 -71 76 -28 91
-30 154 -24 39 4 90 7 115 6 210 -6 201 -7 283 27 136 56 289 168 358 265 24
32 27 32 -79 -5z"/>
</g>
</svg>
